<svg width="28" height="28" viewBox="0 0 28 28" fill="none" xmlns="http://www.w3.org/2000/svg">
<g id="ci:grid-big-round">
<path id="Vector" d="M18.6668 22.1667C17.7386 22.1667 16.8483 21.798 16.192 21.1416C15.5356 20.4852 15.1668 19.595 15.1668 18.6667C15.1668 17.7385 15.5356 16.8482 16.192 16.1918C16.8483 15.5355 17.7386 15.1667 18.6668 15.1667C19.5951 15.1667 20.4853 15.5355 21.1417 16.1918C21.7981 16.8482 22.1668 17.7385 22.1668 18.6667C22.1668 19.595 21.7981 20.4852 21.1417 21.1416C20.4853 21.798 19.5951 22.1667 18.6668 22.1667ZM9.3335 22.1667C8.40524 22.1667 7.515 21.798 6.85862 21.1416C6.20225 20.4852 5.8335 19.595 5.8335 18.6667C5.8335 17.7385 6.20225 16.8482 6.85862 16.1918C7.515 15.5355 8.40524 15.1667 9.3335 15.1667C10.2618 15.1667 11.152 15.5355 11.8084 16.1918C12.4647 16.8482 12.8335 17.7385 12.8335 18.6667C12.8335 19.595 12.4647 20.4852 11.8084 21.1416C11.152 21.798 10.2618 22.1667 9.3335 22.1667ZM18.6668 12.8334C17.7386 12.8334 16.8483 12.4646 16.192 11.8082C15.5356 11.1519 15.1668 10.2616 15.1668 9.33337C15.1668 8.40512 15.5356 7.51488 16.192 6.8585C16.8483 6.20212 17.7386 5.83337 18.6668 5.83337C19.5951 5.83337 20.4853 6.20212 21.1417 6.8585C21.7981 7.51488 22.1668 8.40512 22.1668 9.33337C22.1668 10.2616 21.7981 11.1519 21.1417 11.8082C20.4853 12.4646 19.5951 12.8334 18.6668 12.8334ZM9.3335 12.8334C8.40524 12.8334 7.515 12.4646 6.85862 11.8082C6.20225 11.1519 5.8335 10.2616 5.8335 9.33337C5.8335 8.40512 6.20225 7.51488 6.85862 6.8585C7.515 6.20212 8.40524 5.83337 9.3335 5.83337C10.2618 5.83337 11.152 6.20212 11.8084 6.8585C12.4647 7.51488 12.8335 8.40512 12.8335 9.33337C12.8335 10.2616 12.4647 11.1519 11.8084 11.8082C11.152 12.4646 10.2618 12.8334 9.3335 12.8334Z" fill="black"/>
</g>
</svg>
